<?xml version="1.0" encoding="UTF-8" standalone="no"?>
<!-- Created with Inkscape (http://www.inkscape.org/) -->

<svg
   xmlns:dc="http://purl.org/dc/elements/1.1/"
   xmlns:cc="http://creativecommons.org/ns#"
   xmlns:rdf="http://www.w3.org/1999/02/22-rdf-syntax-ns#"
   xmlns:svg="http://www.w3.org/2000/svg"
   xmlns="http://www.w3.org/2000/svg"
   xmlns:sodipodi="http://sodipodi.sourceforge.net/DTD/sodipodi-0.dtd"
   xmlns:inkscape="http://www.inkscape.org/namespaces/inkscape"
   version="1.1"
   width="16"
   height="16"
   id="svg3773"
   inkscape:version="0.91 r13725"
   sodipodi:docname="nm-signal-75-secure.svg">
  <sodipodi:namedview
     pagecolor="#ffffff"
     bordercolor="#666666"
     borderopacity="1"
     objecttolerance="10"
     gridtolerance="10"
     guidetolerance="10"
     inkscape:pageopacity="0"
     inkscape:pageshadow="2"
     inkscape:window-width="1596"
     inkscape:window-height="857"
     id="namedview8"
     showgrid="false"
     inkscape:zoom="14.75"
     inkscape:cx="11.985653"
     inkscape:cy="10.223046"
     inkscape:window-x="1920"
     inkscape:window-y="41"
     inkscape:window-maximized="0"
     inkscape:current-layer="svg3773" />
  <defs
     id="defs3775" />
  <metadata
     id="metadata3778">
    <rdf:RDF>
      <cc:Work
         rdf:about="">
        <dc:format>image/svg+xml</dc:format>
        <dc:type
           rdf:resource="http://purl.org/dc/dcmitype/StillImage" />
        <dc:title></dc:title>
      </cc:Work>
    </rdf:RDF>
  </metadata>
  <g
     style="fill:#40a0fd;fill-opacity:1"
     transform="matrix(0.31032695,0,0,0.31032695,10.380465,-310.13555)"
     inkscape:label="Capa 1"
     id="layer1-2-3">
    <path
       sodipodi:nodetypes="cssscsssssscccsssc"
       d="m 15.926846,1040.1714 0,-1.9983 c 0,-2.7121 -2.206463,-4.9187 -4.918609,-4.9187 -2.7121476,0 -4.9186118,2.2066 -4.9186118,4.9187 l 0,1.9983 c -0.387614,0.081 -0.6796621,0.4259 -0.6796621,0.8373 l 0,7.4883 c 0,0.4717 0.3838071,0.8555 0.8555666,0.8555 l 9.4853693,0 c 0.471759,0 0.855566,-0.3838 0.855566,-0.8555 l 0,-7.4883 c 0,-0.4114 -0.292003,-0.7559 -0.679619,-0.8373 z m -1.711133,-0.018 -6.4149539,0 0,-1.9801 c 0,-1.7686 1.4388492,-3.2074 3.2074779,-3.2074 1.768626,0 3.207476,1.4389 3.207476,3.2074 z"
       id="path3"
       inkscape:connector-curvature="0"
       style="fill:#40a0fd;fill-opacity:1" />
  </g>
  <g
     id="g9180"
     transform="translate(0,4.4067797)">
    <path
       sodipodi:nodetypes="sccscscsccs"
       inkscape:connector-curvature="0"
       id="path8-15"
       d="m 8.0000053,4.1621479 c -1.2145558,0 -2.3610954,0.5355975 -3.1455208,1.4693392 -0.2433866,0.2894904 -0.2059349,0.7214341 0.084021,0.9647962 0.1282865,0.107747 0.2844412,0.1607136 0.4401547,0.1607136 0.1954201,0 0.3894921,-0.08309 0.5246415,-0.244269 0.5237346,-0.6232706 1.2880616,-0.9808013 2.0967036,-0.9808013 0.808641,0 1.572993,0.3575307 2.0967027,0.9808013 0.135615,0.161645 0.329662,0.244269 0.524642,0.244269 0.155713,0 0.311868,-0.052501 0.440154,-0.1607136 C 11.35146,6.3528967 11.388888,5.9209529 11.145524,5.6314871 10.361075,4.6977454 9.2145363,4.1621479 8.0000053,4.1621479 Z"
       style="fill:#40a0fd;fill-opacity:1" />
    <path
       sodipodi:nodetypes="sccscscsccs"
       inkscape:connector-curvature="0"
       id="path8-4-43"
       d="m 7.9997643,1.1491386 c -2.0231973,0 -3.9336226,0.8926381 -5.2422238,2.4492093 -0.2433621,0.2894903 -0.205935,0.7214341 0.084021,0.9647961 0.1282866,0.107747 0.2844413,0.1607381 0.4401548,0.1607381 0.19542,0 0.389492,-0.083114 0.5246414,-0.2442934 1.046979,-1.2460511 2.5756821,-1.9606469 4.1934306,-1.9606469 1.617749,0 3.1464277,0.7145958 4.1938727,1.9606469 0.135615,0.1616449 0.329662,0.2442934 0.524617,0.2442934 0.155713,0 0.311868,-0.052525 0.440179,-0.1607381 0.289931,-0.243362 0.327358,-0.675747 0.08402,-0.9647961 C 11.933386,2.0418012 10.022961,1.1491386 7.9997643,1.1491386 Z"
       style="fill:#40a0fd;fill-opacity:1" />
    <path
       sodipodi:nodetypes="csccscscscc"
       inkscape:connector-curvature="0"
       id="path8-8-0"
       d="m 15.33939,1.6776277 c -1.83187,-2.17981726 -4.507113,-3.4295449 -7.339393,-3.4295449 -2.8322796,0 -5.5070813,1.24972764 -7.33941698,3.4295449 -0.2433866,0.2894903 -0.205935,0.7214341 0.084021,0.9647962 0.1282866,0.107747 0.28400008,0.1607381 0.43968908,0.1607381 0.19542,0 0.389492,-0.083114 0.5250826,-0.2442935 1.5707138,-1.86885596 3.8637684,-2.94095796 6.2906003,-2.94095796 2.426831,0 4.719886,1.072102 6.290575,2.94051676 0.135615,0.1611793 0.329663,0.2442935 0.525107,0.2442935 0.155714,0 0.311868,-0.052525 0.440155,-0.1607381 0.28949,-0.2429454 0.326966,-0.6753304 0.08358,-0.964355 z"
       style="fill:#cccccc;fill-opacity:0.4" />
    <path
       sodipodi:nodetypes="cscc"
       inkscape:connector-curvature="0"
       id="path8-1-37"
       d="m 6.8719243,7.8102802 c 0,0.6227056 0.5053904,1.1280776 1.1280753,1.1280776 0.622686,0 1.1280761,-0.505372 1.1280761,-1.1280776 -0.190579,-1.6011551 -2.2198579,-1.1928377 -2.2561513,0 z"
       style="fill:#40a0fd;fill-opacity:1" />
  </g>
</svg>
