<?xml version="1.0" standalone="no"?>
<!DOCTYPE svg PUBLIC "-//W3C//DTD SVG 20010904//EN"
 "http://www.w3.org/TR/2001/REC-SVG-20010904/DTD/svg10.dtd">
<svg version="1.0" xmlns="http://www.w3.org/2000/svg"
 width="1002.000000pt" height="1280.000000pt" viewBox="0 0 1002.000000 1280.000000"
 preserveAspectRatio="xMidYMid meet">
<g transform="translate(0.000000,1280.000000) scale(0.100000,-0.100000)"
fill="#000000" stroke="none">
<path d="M4895 12789 c-783 -76 -1078 -149 -1699 -416 -401 -172 -709 -331
-940 -485 -428 -285 -835 -687 -1228 -1212 -336 -448 -547 -837 -756 -1396
-184 -491 -256 -780 -269 -1085 -14 -323 46 -632 219 -1138 55 -161 140 -408
188 -550 87 -254 153 -498 187 -692 15 -83 18 -156 17 -435 0 -184 -6 -397
-13 -473 l-11 -137 34 -31 c52 -45 130 -173 222 -364 84 -175 146 -329 165
-413 11 -46 10 -50 -34 -137 -56 -112 -127 -292 -163 -410 -24 -78 -28 -107
-28 -220 0 -317 130 -555 392 -718 50 -31 132 -82 182 -113 118 -73 228 -176
267 -251 17 -32 52 -115 78 -185 59 -160 108 -242 171 -288 44 -32 55 -35 114
-35 62 0 76 5 227 79 146 71 167 78 222 79 55 0 67 -4 116 -37 49 -34 125
-117 182 -201 12 -16 38 -48 60 -70 88 -93 134 -232 136 -410 1 -61 -3 -118
-9 -128 -9 -16 1 -31 66 -96 134 -136 200 -261 186 -358 -7 -52 7 -83 56 -130
94 -88 192 -124 405 -148 156 -17 228 -37 345 -96 43 -21 112 -51 155 -65 102
-34 155 -29 293 26 90 37 115 43 175 43 71 -1 188 -25 328 -68 73 -22 81 -23
120 -9 69 25 228 63 301 73 86 12 136 3 252 -45 120 -49 177 -54 277 -20 43
14 112 44 155 65 117 59 189 79 345 96 213 24 311 60 405 148 49 47 63 78 56
130 -14 97 53 224 187 359 64 65 74 79 65 95 -6 10 -10 67 -9 128 1 177 48
317 136 410 21 22 59 69 84 104 56 78 142 165 185 187 21 11 55 17 91 17 52
-1 76 -10 220 -79 151 -74 166 -79 227 -79 59 0 70 3 114 35 63 46 112 128
171 288 26 70 61 153 78 185 40 76 151 180 275 256 53 33 135 84 182 113 255
160 384 400 384 713 0 113 -4 142 -28 220 -36 118 -107 298 -163 410 -44 87
-45 91 -34 137 19 84 81 238 165 413 92 191 170 319 222 364 l34 31 -12 137
c-6 76 -12 291 -12 478 0 378 4 420 80 720 33 132 66 233 311 950 308 902 300
1294 -49 2225 -243 648 -523 1131 -962 1660 -542 651 -1029 1021 -1791 1359
-665 294 -968 384 -1515 451 -164 19 -480 51 -490 49 -3 -1 -45 -6 -95 -10z
m485 -397 c318 -81 693 -189 1032 -296 378 -120 489 -143 891 -186 175 -19
179 -20 272 -65 242 -119 452 -295 755 -635 328 -368 459 -556 760 -1095 68
-121 172 -306 231 -412 256 -451 391 -740 434 -927 26 -111 37 -337 25 -530
-13 -220 -33 -387 -105 -866 -91 -604 -203 -921 -437 -1237 -49 -67 -78 -70
-140 -15 -138 123 -247 297 -248 394 -1 127 90 112 195 -32 41 -55 50 -60 60
-29 10 32 -10 93 -106 327 -100 240 -129 327 -129 382 0 70 29 62 128 -34 l64
-61 -35 71 c-90 180 -176 423 -197 554 -16 100 -10 161 33 370 73 356 109 682
110 1000 1 238 -8 301 -45 308 -16 3 -18 -5 -18 -55 0 -206 -175 -1014 -305
-1415 -65 -200 -61 -250 40 -502 96 -241 105 -313 65 -531 -48 -265 -2 -415
258 -843 177 -288 234 -412 277 -597 37 -162 46 -230 46 -364 0 -230 -36 -316
-248 -599 -144 -193 -193 -279 -223 -397 -23 -88 -26 -220 -9 -293 10 -40 26
-61 114 -147 57 -55 110 -114 118 -130 43 -86 64 -256 48 -382 -27 -211 -129
-354 -351 -490 -137 -85 -265 -171 -302 -205 -83 -75 -156 -203 -243 -423 -50
-129 -76 -164 -158 -217 -48 -30 -49 -31 -150 -26 -91 5 -109 9 -162 38 -168
90 -230 156 -250 263 -6 33 -4 40 27 71 38 38 116 66 182 66 30 0 37 3 26 10
-8 5 -32 10 -53 10 -71 0 -184 30 -323 85 -301 121 -449 226 -520 372 -26 52
-26 57 -14 111 7 31 17 65 22 75 8 16 7 17 -11 8 -11 -6 -23 -16 -26 -21 -11
-17 -83 -50 -109 -50 -14 0 -53 18 -88 39 -142 89 -336 144 -435 123 -106 -22
-153 -74 -153 -169 0 -52 32 -140 70 -193 l23 -32 18 70 c30 118 72 182 136
203 47 15 107 -7 235 -87 56 -35 118 -70 136 -76 21 -8 31 -17 28 -28 -3 -8
-21 -78 -41 -155 -20 -77 -39 -149 -42 -160 -3 -11 18 12 46 52 48 69 95 113
134 126 25 9 71 -16 101 -55 44 -59 59 -127 54 -241 -8 -168 -74 -317 -170
-384 -35 -24 -51 -28 -108 -28 -56 0 -77 5 -141 37 -96 49 -189 120 -313 239
l-99 97 -46 -30 c-43 -27 -51 -29 -111 -24 l-65 6 25 -20 c40 -31 227 -135
344 -191 120 -57 114 -42 70 -161 -29 -78 -91 -178 -125 -202 -24 -16 -65 -21
-94 -10 -28 11 -75 91 -103 179 l-28 86 -2 -106 c-2 -226 -56 -299 -217 -299
-67 0 -90 4 -142 28 -80 36 -143 102 -144 148 0 31 -1 29 -22 -22 -34 -85 -44
-98 -85 -111 -50 -15 -138 7 -242 59 l-76 37 -71 -37 c-98 -52 -185 -74 -235
-59 -41 13 -51 26 -85 111 -21 51 -22 53 -22 22 -1 -46 -64 -112 -144 -148
-52 -24 -75 -28 -142 -28 -161 0 -215 73 -217 299 l-2 106 -28 -86 c-28 -88
-75 -168 -103 -179 -9 -3 -30 -6 -47 -6 -58 0 -135 105 -187 258 -11 34 -21
64 -21 66 0 3 48 27 107 55 116 56 303 160 343 191 l25 20 -65 -6 c-60 -5 -68
-3 -111 24 l-46 30 -99 -97 c-124 -119 -217 -190 -313 -239 -64 -32 -85 -37
-141 -37 -57 0 -73 4 -109 29 -53 37 -115 130 -142 215 -27 83 -36 239 -19
310 21 88 100 171 147 154 39 -13 86 -57 134 -126 28 -40 49 -63 46 -52 -3 11
-22 83 -42 160 -20 77 -38 148 -41 158 -3 10 0 17 9 17 8 0 68 32 133 72 190
115 239 126 305 71 38 -33 66 -87 88 -175 l18 -70 23 32 c38 53 70 141 70 193
0 95 -47 147 -153 169 -99 21 -293 -34 -435 -123 -35 -21 -74 -39 -88 -39 -26
0 -98 33 -109 50 -3 5 -15 15 -26 21 -18 9 -19 8 -11 -8 5 -10 15 -44 22 -75
12 -54 12 -59 -13 -110 -72 -146 -221 -253 -521 -373 -139 -55 -252 -85 -323
-85 -21 0 -45 -5 -53 -10 -11 -7 -4 -10 26 -10 66 0 144 -28 182 -66 31 -31
33 -38 27 -72 -16 -90 -75 -159 -192 -230 -89 -53 -123 -64 -225 -69 -95 -6
-98 -5 -145 25 -82 53 -108 88 -158 217 -90 229 -162 351 -255 433 -43 38
-132 97 -290 195 -166 102 -275 221 -320 350 -43 123 -49 296 -14 432 24 91
38 113 149 220 88 86 104 107 114 147 17 73 14 205 -9 293 -30 118 -79 204
-223 397 -212 283 -248 369 -248 598 -1 132 8 202 46 365 43 185 100 309 277
597 261 428 307 579 258 843 -40 217 -31 290 65 531 101 252 105 302 41 502
-63 193 -80 253 -130 462 -93 382 -176 834 -176 953 0 50 -2 58 -18 55 -37 -7
-46 -70 -45 -308 1 -319 37 -645 110 -1000 45 -213 50 -285 28 -393 -27 -141
-107 -361 -190 -529 l-37 -73 64 61 c99 96 128 104 128 34 0 -55 -29 -142
-129 -382 -96 -234 -116 -295 -106 -327 10 -31 19 -26 60 29 80 109 158 149
183 95 40 -87 -31 -244 -180 -400 -81 -85 -113 -107 -144 -95 -39 15 -186 237
-250 376 -134 294 -224 713 -318 1481 -50 404 -39 735 29 938 55 161 193 444
360 740 59 105 164 291 232 415 332 596 465 791 799 1166 301 339 517 520 759
639 94 46 97 46 275 65 372 40 533 73 870 180 418 133 865 259 1222 345 193
47 221 45 568 -43z m-1795 -10756 c50 -54 67 -125 72 -319 l5 -168 37 62 c66
113 147 189 201 189 34 0 75 -29 104 -74 33 -50 73 -175 88 -273 12 -77 22
-91 32 -45 13 53 95 208 135 253 70 80 161 104 214 55 66 -61 114 -234 136
-486 l7 -85 7 113 c16 223 58 402 115 487 34 51 108 90 152 80 43 -9 85 -48
104 -96 14 -34 14 -47 4 -82 -14 -50 -17 -352 -4 -482 12 -117 21 -87 36 122
10 121 10 184 0 284 -7 70 -10 139 -6 153 10 39 54 85 95 97 32 10 45 8 83 -9
107 -47 172 -234 195 -552 l7 -105 12 125 c23 221 70 379 130 435 54 50 145
27 215 -54 40 -45 122 -200 135 -253 10 -46 20 -32 32 45 15 98 55 223 88 273
29 45 70 74 104 74 54 0 135 -76 201 -189 l36 -61 6 172 c5 199 25 278 79 323
35 30 50 31 103 6 104 -47 180 -190 221 -417 28 -150 25 -453 -5 -594 -46
-218 -110 -289 -201 -228 -45 31 -111 131 -146 223 -16 41 -32 75 -36 75 -5 0
-8 -28 -8 -62 0 -137 -42 -301 -91 -361 -36 -44 -83 -56 -127 -33 -77 40 -138
156 -191 364 l-28 112 -6 -117 c-13 -223 -45 -349 -106 -413 -34 -36 -43 -40
-85 -40 -108 0 -217 104 -306 292 -16 34 -31 55 -34 47 -2 -8 -14 -54 -25
-104 -24 -104 -84 -229 -124 -259 -63 -46 -130 -15 -173 80 -23 53 -54 183
-54 230 0 45 -8 24 -28 -76 -35 -171 -86 -254 -157 -254 -19 0 -47 9 -62 20
-40 30 -100 155 -124 259 -12 50 -23 96 -25 104 -3 8 -18 -13 -34 -47 -89
-188 -198 -292 -306 -292 -42 0 -51 4 -85 40 -61 64 -93 190 -106 414 l-6 120
-28 -114 c-51 -207 -113 -326 -191 -366 -44 -23 -91 -11 -127 33 -49 60 -91
224 -91 361 0 34 -4 62 -8 62 -4 0 -14 -17 -21 -37 -42 -119 -121 -242 -172
-268 -88 -46 -145 25 -190 235 -30 140 -33 443 -5 594 42 231 119 374 226 420
52 23 69 20 105 -18z"/>
<path d="M4855 11066 c53 -46 316 -232 430 -304 611 -387 1268 -664 2329 -981
386 -116 383 -112 -39 45 -589 219 -1116 436 -1562 643 -339 157 -887 442
-1098 571 -89 54 -97 57 -60 26z"/>
<path d="M2426 10730 c9 -77 53 -264 85 -362 44 -133 148 -345 234 -474 41
-62 142 -197 225 -300 264 -330 326 -444 349 -644 l8 -75 2 65 c1 86 -14 177
-45 275 -57 175 -142 321 -392 671 -295 415 -388 588 -465 869 -3 11 -4 0 -1
-25z"/>
<path d="M5402 8918 c-166 -232 -260 -379 -329 -515 -58 -114 -128 -303 -121
-325 4 -12 81 94 141 193 25 42 117 215 205 385 88 170 173 333 190 362 18 28
30 52 27 52 -2 0 -53 -69 -113 -152z"/>
<path d="M7100 8375 c48 -84 171 -317 258 -490 50 -99 113 -217 140 -262 61
-101 142 -216 149 -210 8 8 -36 144 -77 237 -63 146 -182 339 -383 620 -98
136 -123 167 -87 105z"/>
<path d="M1660 8077 c0 -2 28 -14 63 -27 1158 -416 2146 -858 2897 -1295 62
-36 115 -64 116 -62 2 2 -50 43 -116 91 -714 522 -1493 870 -2790 1247 -80 23
-151 44 -157 46 -7 3 -13 3 -13 0z"/>
<path d="M3166 6849 c4 -8 68 -101 141 -208 73 -106 150 -225 172 -265 44 -80
77 -164 68 -172 -5 -5 -926 457 -955 479 -7 5 -15 8 -18 5 -8 -9 147 -134 406
-329 303 -228 420 -336 420 -389 0 -6 -29 -10 -74 -10 -138 0 -318 59 -671
220 -549 249 -714 293 -918 241 -90 -23 -136 -46 -204 -99 -96 -77 -189 -227
-287 -465 -20 -49 -54 -124 -76 -168 -22 -43 -38 -79 -36 -79 3 0 54 64 113
142 139 183 210 259 276 293 42 22 60 27 89 21 58 -11 63 -26 24 -77 -57 -75
-181 -270 -229 -359 -63 -118 -130 -288 -164 -417 -26 -99 -28 -123 -28 -288
0 -209 10 -259 80 -400 49 -101 112 -185 173 -233 l40 -32 -53 105 c-62 122
-90 225 -80 302 6 53 61 175 80 180 6 2 21 -18 34 -44 89 -187 271 -470 428
-667 122 -152 342 -375 450 -454 45 -33 79 -63 76 -66 -14 -14 -128 -5 -186
15 -34 11 -129 56 -212 99 -202 105 -218 108 -126 23 117 -108 218 -180 326
-233 123 -59 205 -80 320 -80 108 0 194 20 302 70 183 85 293 174 676 549 163
159 318 300 380 347 103 78 263 171 274 161 12 -12 -134 -245 -261 -414 -92
-125 -226 -284 -451 -538 -215 -243 -378 -435 -370 -435 10 0 289 228 431 352
170 148 568 546 729 728 115 130 321 383 446 546 l47 61 118 -23 119 -23 115
20 c63 11 118 23 122 25 4 3 29 -23 55 -58 127 -166 333 -417 448 -548 161
-182 559 -580 729 -728 142 -124 421 -352 431 -352 9 0 -114 144 -335 395
-362 411 -443 510 -582 715 -103 151 -173 269 -165 276 11 11 170 -81 274
-160 62 -47 217 -188 380 -347 291 -285 415 -395 526 -467 91 -59 217 -116
298 -136 83 -20 224 -21 308 0 147 35 337 151 501 304 83 78 64 73 -135 -30
-82 -43 -178 -88 -212 -99 -58 -20 -172 -29 -186 -15 -3 3 31 33 76 66 108 79
329 303 448 453 162 204 319 444 411 629 23 47 47 85 53 83 19 -5 74 -127 80
-180 10 -77 -18 -180 -80 -302 l-53 -105 40 32 c61 48 124 132 173 233 65 130
77 185 82 365 5 175 -10 278 -68 451 -61 182 -215 464 -354 646 -40 53 -36 68
23 79 29 6 47 1 89 -21 66 -34 137 -110 276 -293 59 -78 110 -142 113 -142 2
0 -13 35 -35 78 -21 42 -51 106 -66 142 -92 223 -148 327 -224 418 -129 155
-335 221 -549 178 -149 -30 -289 -84 -647 -246 -353 -161 -533 -220 -671 -220
-45 0 -74 4 -74 10 0 54 115 160 455 417 457 346 459 345 -108 58 -269 -136
-491 -244 -494 -241 -9 9 38 123 84 201 23 39 100 155 172 259 72 104 129 191
126 194 -2 2 -73 -56 -157 -130 -230 -202 -268 -228 -332 -228 -26 0 -36 5
-41 20 -7 23 14 101 56 208 16 41 28 76 26 78 -2 2 -71 -102 -153 -233 -99
-157 -159 -242 -179 -254 -36 -23 -95 -24 -161 -4 -86 26 -84 29 -64 -82 l18
-98 -22 -18 c-45 -39 -160 -110 -219 -137 -130 -57 -218 -75 -387 -75 -104 0
-167 4 -192 13 -32 11 -44 11 -75 0 -26 -9 -89 -13 -193 -13 -132 0 -168 4
-240 24 -109 30 -191 67 -277 124 -120 80 -113 67 -93 180 20 111 22 108 -64
82 -66 -20 -125 -19 -161 4 -20 12 -80 98 -179 255 -82 130 -151 234 -153 232
-2 -2 10 -37 26 -78 42 -107 63 -185 56 -208 -5 -15 -15 -20 -41 -20 -63 0
-111 33 -331 228 -140 123 -175 150 -157 121z"/>
<path d="M4922 4318 c-22 -71 -275 -856 -357 -1106 -28 -85 -39 -129 -29 -121
29 24 207 302 258 402 56 110 85 213 110 387 19 134 39 382 34 438 l-3 44 -13
-44z"/>
<path d="M5085 4230 c6 -149 27 -344 50 -467 22 -115 50 -195 102 -293 52 -98
224 -360 250 -381 9 -8 14 -9 11 -4 -3 6 -96 291 -207 635 -111 344 -204 630
-206 635 -3 6 -3 -51 0 -125z"/>
<path d="M8164 3645 c31 -48 226 -418 232 -441 4 -16 -11 -45 -56 -108 -102
-143 -240 -381 -240 -413 0 -14 123 113 185 192 34 44 85 115 112 157 l49 77
49 -92 c86 -162 211 -354 223 -342 9 8 -51 181 -93 270 -23 50 -62 124 -87
166 l-46 77 115 226 c62 124 112 226 109 226 -2 0 -19 -24 -37 -52 -62 -98
-222 -328 -228 -327 -3 0 -69 90 -146 201 -77 110 -144 203 -150 206 -5 3 -1
-7 9 -23z"/>
<path d="M1395 3433 c6 -5 35 -27 65 -48 118 -83 236 -191 515 -471 160 -160
324 -316 365 -346 84 -62 210 -141 216 -136 2 2 -26 23 -62 47 -91 60 -164
130 -345 332 -220 246 -344 357 -568 507 -119 81 -204 133 -186 115z"/>
</g>
</svg>
