<?xml version="1.0" encoding="UTF-8" standalone="no"?>
<!-- Created with Inkscape (http://www.inkscape.org/) -->

<svg
   xmlns:dc="http://purl.org/dc/elements/1.1/"
   xmlns:cc="http://creativecommons.org/ns#"
   xmlns:rdf="http://www.w3.org/1999/02/22-rdf-syntax-ns#"
   xmlns:svg="http://www.w3.org/2000/svg"
   xmlns="http://www.w3.org/2000/svg"
   xmlns:sodipodi="http://sodipodi.sourceforge.net/DTD/sodipodi-0.dtd"
   xmlns:inkscape="http://www.inkscape.org/namespaces/inkscape"
   width="48mm"
   height="48mm"
   viewBox="0 0 170.07874 170.07873"
   id="svg4328"
   version="1.1"
   inkscape:version="0.91 r13725"
   sodipodi:docname="clipit-trayicon.svg">
  <defs
     id="defs4330" />
  <sodipodi:namedview
     id="base"
     pagecolor="#ffffff"
     bordercolor="#666666"
     borderopacity="1.0"
     inkscape:pageopacity="0.0"
     inkscape:pageshadow="2"
     inkscape:zoom="1.4"
     inkscape:cx="48.240825"
     inkscape:cy="92.512008"
     inkscape:document-units="px"
     inkscape:current-layer="layer1"
     showgrid="false"
     width="48mm"
     inkscape:window-width="1596"
     inkscape:window-height="857"
     inkscape:window-x="1920"
     inkscape:window-y="41"
     inkscape:window-maximized="0" />
  <metadata
     id="metadata4333">
    <rdf:RDF>
      <cc:Work
         rdf:about="">
        <dc:format>image/svg+xml</dc:format>
        <dc:type
           rdf:resource="http://purl.org/dc/dcmitype/StillImage" />
        <dc:title></dc:title>
      </cc:Work>
    </rdf:RDF>
  </metadata>
  <g
     inkscape:label="Layer 1"
     inkscape:groupmode="layer"
     id="layer1"
     transform="translate(0,-882.28362)">
    <path
       style="fill:#40a0fd;fill-opacity:1"
       d="m 39.389242,1041.385 c -1.039978,-0.2246 -3.134476,-1.0194 -4.654447,-1.7664 -2.279809,-1.1202 -3.17957,-1.7773 -5.138803,-3.7524 -1.957776,-1.9737 -2.604451,-2.8738 -3.680794,-5.1228 -0.718237,-1.5007 -1.482147,-3.4485 -1.69771,-4.3285 -0.579771,-2.3681 -0.579771,-94.50238 0,-96.87059 0.215563,-0.87999 0.982673,-2.83474 1.705274,-4.34391 2.286496,-4.77733 6.735858,-8.53338 12.302866,-10.38605 1.495534,-0.49768 3.334916,-0.5382 28.170755,-0.62035 29.024261,-0.096 27.885957,-0.15284 31.881506,1.59048 1.592403,0.69485 3.019571,2.01936 14.624851,13.57228 13.74256,13.68085 13.91273,13.88283 15.1834,18.03598 0.60304,1.97087 0.61031,2.3505 0.61031,32.36297 0,27.09319 0.048,30.36869 0.44596,30.36869 0.84071,0 3.19033,-1.3939 4.38041,-2.5986 1.53423,-1.5528 2.41334,-3.3389 2.76475,-5.6161 0.17425,-1.1299 0.24989,-18.77476 0.19927,-46.47503 -0.0756,-41.46699 -0.11724,-44.74285 -0.58269,-45.90411 -0.76826,-1.9169 -2.20358,-3.72978 -3.83671,-4.846 -2.90903,-1.98798 -1.12259,-1.90332 -40.170216,-1.90332 -30.811855,0 -35.439542,0.0562 -36.956306,0.44912 -1.959233,0.50754 -3.649671,1.52163 -4.910447,2.94589 l -0.85758,0.96853 -5.460831,0 -5.460538,0 0.418605,-1.18668 c 0.923912,-2.61868 2.368828,-4.83516 4.648631,-7.13117 1.915887,-1.92973 2.83485,-2.59866 5.094879,-3.70927 4.780404,-2.34925 2.398203,-2.22777 43.575221,-2.22206 41.097032,0.006 38.662752,-0.11866 43.391962,2.21592 2.24607,1.10869 3.19761,1.80136 5.13124,3.73505 1.97174,1.97165 2.5966,2.83898 3.6872,5.11792 0.7226,1.50917 1.48971,3.46392 1.70527,4.3439 0.31999,1.30749 0.39155,10.18769 0.39155,48.58079 l 0,46.98082 -0.68129,2.1818 c -1.13743,3.6431 -2.54947,6.0072 -5.14927,8.6221 -1.94557,1.9568 -2.8302,2.5983 -5.09779,3.6977 -1.52899,0.7411 -3.61359,1.4933 -4.70768,1.6986 l -1.9636,0.3685 0,1.9234 c 0,2.4944 -0.89045,5.9694 -2.2286,8.6975 -0.80232,1.6359 -1.68201,2.7907 -3.56385,4.679 -2.74962,2.7591 -4.51976,3.8901 -8.02544,5.1274 l -2.32722,0.8214 -35.635613,0.053 c -29.645051,0.044 -35.953576,-0.016 -37.526485,-0.3554 z m 73.364848,-10.3651 c 2.11371,-0.9908 4.13868,-3.0157 5.1295,-5.1296 l 0.77671,-1.6571 0.0783,-36.73542 c 0.0538,-25.33027 -0.0174,-36.9133 -0.22837,-37.30832 -0.29206,-0.54522 -0.64056,-0.57285 -7.22544,-0.57285 -5.47946,0 -7.24727,-0.0965 -8.49845,-0.46411 -4.140125,-1.21606 -7.349655,-3.95994 -9.224526,-7.88629 l -1.082743,-2.26756 -0.145452,-7.41802 -0.145452,-7.41803 -24.567627,-0.0744 c -27.337897,-0.0828 -26.713324,-0.1218 -29.592105,1.84883 -1.617998,1.10753 -3.289235,3.32703 -3.920787,5.20722 -0.579771,1.72555 -0.579771,91.94515 0,93.67075 0.631552,1.8802 2.302789,4.0997 3.920787,5.2072 2.896232,1.9826 1.03387,1.8949 38.887332,1.8316 l 34.181093,-0.057 1.65727,-0.7768 z m -64.439073,-17.8162 c -1.6564,-0.4505 -3.522255,-2.127 -4.009221,-3.6028 -0.866023,-2.6238 0.369444,-5.8512 2.719943,-7.1069 l 1.236046,-0.6603 27.053974,-0.09 c 19.74562,-0.066 27.476371,0 28.617871,0.2473 1.20899,0.261 1.84374,0.6174 2.79586,1.5694 2.795,2.7951 2.22454,7.0656 -1.21422,9.0869 l -1.40012,0.8229 -27.199423,0.057 c -21.659182,0.046 -27.484806,-0.02 -28.60071,-0.3236 z m -0.778454,-25.65128 c -4.704777,-2.04031 -4.664047,-8.74642 0.06545,-10.72251 0.947179,-0.39577 4.411539,-0.44944 28.64987,-0.44383 26.040467,0.006 27.637237,0.0358 28.738597,0.53614 3.83206,1.74088 4.69953,6.55238 1.69596,9.40548 -1.86324,1.76985 -0.39214,1.6892 -30.561393,1.67671 -23.969244,-0.01 -27.70502,-0.0689 -28.588488,-0.45199 z m 0.939322,-25.12997 c -5.002368,-1.18647 -6.058053,-7.90526 -1.669202,-10.62407 l 1.408557,-0.87271 15.877482,-0.0935 c 10.797739,-0.0635 16.348168,0.009 17.348579,0.22647 2.705692,0.58852 4.770515,3.04906 4.770515,5.68508 0,2.51803 -1.994133,5.01224 -4.514807,5.64692 -1.458588,0.3673 -31.684861,0.39625 -33.221124,0.0318 z"
       id="path4317"
       inkscape:connector-curvature="0"
       inkscape:export-xdpi="172"
       inkscape:export-ydpi="172" />
  </g>
</svg>
